<svg width="20" height="20" viewBox="0 0 20 20" fill="none" xmlns="http://www.w3.org/2000/svg">
<g id="vuesax/bulk/tick-circle">
<g id="tick-circle">
<path id="Vector" opacity="0.2" d="M9.99996 18.3333C14.6023 18.3333 18.3333 14.6024 18.3333 10C18.3333 5.39763 14.6023 1.66667 9.99996 1.66667C5.39759 1.66667 1.66663 5.39763 1.66663 10C1.66663 14.6024 5.39759 18.3333 9.99996 18.3333Z" fill="#1F2B7B"/>
<path id="Vector_2" d="M8.8167 12.9833C8.65003 12.9833 8.4917 12.9167 8.37503 12.8L6.0167 10.4417C5.77503 10.2 5.77503 9.80001 6.0167 9.55834C6.25837 9.31667 6.65837 9.31667 6.90003 9.55834L8.8167 11.475L13.1 7.19167C13.3417 6.95001 13.7417 6.95001 13.9834 7.19167C14.225 7.43334 14.225 7.83334 13.9834 8.075L9.25837 12.8C9.1417 12.9167 8.98337 12.9833 8.8167 12.9833Z" fill="#1F2B7B"/>
</g>
</g>
</svg>
